<svg xmlns="http://www.w3.org/2000/svg" xmlns:xlink="http://www.w3.org/1999/xlink" width="400" height="400" viewBox="0 0 400 400">
<rect data-name="background" width="100%" height="100%" fill="#28757c"/><g data-name="container" data="container_num:14" fill="#ffffff" transform="translate(48,96.9646882570868) scale(2.618432420287776)"><path xmlns="http://www.w3.org/2000/svg" d="M116.1 78.7H0V0h116.1zM2 76.7h112.1V2H2z"/></g><g data-name="icon" fill="#ffffff" data="id:8222884" transform="translate(64.65857308823308,165.12080161292363) scale(0.6978780802354588)">
    
 <path d="m73.078 45.48c3.7344 11.371 1.793 23.84-5.2227 33.539-7.0117 9.6953-18.246 15.445-30.215 15.461h-0.71094c-6.8711-0.125-13.578-2.1484-19.371-5.8516-0.27734-0.17969-0.35938-0.54688-0.1875-0.82812 0.085937-0.13672 0.22266-0.23047 0.375-0.26172 0.15625-0.035156 0.32031-0.003906 0.45312 0.082032 5.6172 3.6016 12.129 5.5703 18.801 5.6875h0.69141c11.586-0.019532 22.465-5.5898 29.254-14.98 6.7891-9.3945 8.668-21.469 5.0547-32.477-0.10156-0.3125 0.066406-0.64844 0.37891-0.75 0.3125-0.10547 0.64844 0.066407 0.75 0.37891zm-35.438 41.691c9.9648-0.011719 19.277-4.9766 24.848-13.242 5.5664-8.2656 6.668-18.758 2.9336-28-0.125-0.30469-0.47656-0.45313-0.78125-0.32813-0.30078 0.12891-0.44922 0.47266-0.33203 0.77734 3.3672 8.3281 2.6562 17.75-1.9258 25.477-4.582 7.7227-12.508 12.871-21.43 13.91s-17.816-2.1406-24.055-8.6055c-5.0625-5.25-7.9258-12.238-8-19.531 1.7617 0.85938 5.8594 2.6406 9.7812 2.6406 5.4219 0 6.2383-2.8984 6.7617-6.6719 0.46094-3.3984 2.2305-4.6484 6.75-4.7812 5.668-0.16797 7.7383-2.8164 7.8086-5.3164 0-2.1719-1.5508-3.1719-4.1992-4.8203-0.89062-0.55859-1.8984-1.1914-3.0586-2h-0.003907c-2.3984-1.5312-3.5781-4.4023-2.9492-7.1797 0.32031-0.089844 0.62891-0.19922 1-0.28125 0.16797-0.027344 0.3125-0.12109 0.40625-0.26172s0.12109-0.3125 0.082032-0.47656c-0.042969-0.16016-0.14844-0.30078-0.29688-0.37891-0.14844-0.082031-0.32031-0.097656-0.48047-0.042968-6.4141 1.5781-12.129 5.2227-16.258 10.379-4.1328 5.1562-6.4453 11.527-6.582 18.133v0.050782c-0.14844 7.9492 2.8672 15.633 8.3828 21.359 5.5156 5.7305 13.078 9.0352 21.027 9.1914zm54.711-34.883c-0.066406 2.7773-2.332 4.9961-5.1133 5h-0.10156 0.003906c-2.6016-0.015624-4.7656-2-5-4.5898-2.5391-0.32031-4.2695-1.1914-5.2891-2.6602-1.2188-1.75-1.3906-4.3203-0.53906-7.8516 1.6875-6.6289 1.1875-10.258-2.1016-12.656l-4.3594 12.867c-0.082031 0.24609-0.3125 0.41016-0.57031 0.41016-23.672-0.86719-34.281-14.547-34.34-14.688-0.14062-0.20312-0.14062-0.46875 0-0.67188l6.7695-11.09-7.7891-6.3008c-0.91406-0.72656-1.2227-1.9766-0.75391-3.043 0.46875-1.0703 1.5977-1.6875 2.7539-1.5039 7.6094 1.1992 19.219 3.0703 24.68 4 2.082 0.33203 4.0547 1.1562 5.7578 2.3984l19.562 14.219c0.89453 0.65625 1.2695 1.8164 0.92969 2.8711-0.34375 1.0586-1.3203 1.7773-2.4297 1.7891-0.11719 0.011719-0.23438 0.011719-0.35156 0l-7.8398-1c2.7891 3 2.6406 7.1094 1.2812 12.73-0.76953 3.1797-0.64844 5.4297 0.35938 6.8906 0.78906 1.1406 2.2109 1.8398 4.3203 2.1289 0.13672-1.1406 0.66797-2.2031 1.5-3 0.97266-0.94531 2.2812-1.4609 3.6367-1.4297 2.8125 0.054687 5.0547 2.3672 5.0234 5.1797zm-57.711-43.16 18 14.551c1.7578 1.4219 3.875 2.3281 6.1211 2.6094l12.238 1.5898c-0.46875-0.19141-1-0.35938-1.5-0.53125v0.003906c-4.8594-1.4531-8.3555-5.7031-8.8398-10.75-0.007812-0.33203 0.25-0.60937 0.57812-0.63281 0.16016-0.003906 0.31641 0.054688 0.43359 0.16406 0.11328 0.10938 0.18359 0.25781 0.1875 0.41797 0.39453 4.5703 3.582 8.4141 8 9.6484 1.6328 0.49219 3.1875 1.2109 4.6211 2.1289l9.7188 1.25c0.625 0.085937 1.2266-0.26562 1.4648-0.85156 0.23438-0.58203 0.042969-1.2539-0.46484-1.625l-19.57-14.273c-1.5547-1.125-3.3516-1.875-5.25-2.1875-5.4492-0.87891-17.059-2.75-24.66-3.9414-0.082031-0.007813-0.16406-0.007813-0.25 0-0.53516 0-1.0195 0.32422-1.2188 0.82031-0.26562 0.5625-0.10156 1.2305 0.39062 1.6094zm38.359 20.211-14.371-1.8516c-2.4648-0.32031-4.793-1.3164-6.7305-2.8789l-9.2695-7.4883-6.4805 10.59c1.6992 2 12 13 32.711 13.879zm-26.73 37.172c1.8047 0.23828 3.6211 0.35156 5.4414 0.32812 2.5195-0.058594 3.4414-1.4297 3.7617-2.5703 1.1914-4.2188-3.7812-12.52-8.2305-15.41-3.8984-2.5312-6.2188 0.16016-8.0781 2.3203-1 1.2188-2 2.3711-3.1289 2.4805h-0.003906c-1.0469 0.0625-2.0977 0-3.1328-0.19141-1.5391-0.21094-2.8711-0.39844-3.6602 0.41016-0.56641 0.73438-0.74219 1.6953-0.46875 2.582 0.27344 1.1992 0.035157 2.457-0.64844 3.4805-0.92188 1.25-2.75 2.1016-5.4609 2.5117-1 0.14844-2.1992 0.44141-2.4883 1.3203-0.28906 0.87891 0.66016 2 2 3.3906 0.60156 0.60938 1.2891 1.2891 1.8984 2v-0.003906c1.4062 1.6016 1.9844 3.7695 1.5703 5.8594v0.058594c-0.1875 1.0625 0.085937 2.1523 0.75 3 1.7891 2.4219 6.2617 3.7188 9.8516 4.1289h0.69141l-0.003906 0.003907c1.1797 0.042968 2.3281-0.39453 3.1797-1.2109 2.3516-2.3281 2.3906-7.1602 2-10.809-0.19922-1.9414-0.070313-3.0586 0.39844-3.5312 0.47266-0.46875 1.9023-0.35938 3.7617-0.14844z"/>

    </g><g data-name="business_name" fill="#ffffff" data="id:310" transform="translate(153.53272844186736,154.36024672345278) scale(0.8464470569822428)"><path d="M23.72,22.08l-10.12,0l0,25.92l-2.8,0l0-25.92l-10.12,0l0-2.48l23.04,0l0,2.48z M36.4,48.4q-2.24,0-4.16-0.86t-3.32-2.36t-2.18-3.46t-0.78-4.2q0-2.92,1.34-5.36t3.7-3.9t5.36-1.46q3.08,0,5.38,1.48t3.62,3.9t1.32,5.3l0,0.62t-0.04,0.46l-17.84,0q0.2,2.24,1.26,3.98t2.76,2.76t3.7,1.02q2.04,0,3.86-1.04t2.54-2.72l2.36,0.64q-0.64,1.48-1.96,2.68t-3.1,1.86t-3.82,0.66z M28.72,36.6l15.4,0q-0.16-2.28-1.22-4t-2.76-2.7t-3.74-0.98t-3.72,0.98t-2.74,2.72t-1.22,3.98z M49.2,42q0-1.96,1.12-3.38t3.1-2.2t4.58-0.78q1.52,0,3.16,0.24t2.92,0.72l0-1.76q0-2.64-1.56-4.2t-4.32-1.56q-1.68,0-3.3,0.62t-3.38,1.82l-1.04-1.92q2.04-1.4,4-2.1t4-0.7q3.84,0,6.08,2.2t2.24,6.08l0,9.64q0,0.56,0.24,0.82t0.76,0.3l0,2.16q-0.44,0.04-0.76,0.08t-0.48,0q-1-0.04-1.52-0.64t-0.56-1.28l-0.04-1.52q-1.4,1.8-3.64,2.78t-4.56,0.98q-2,0-3.62-0.86t-2.52-2.32t-0.9-3.22z M63.16,43.6q0.44-0.56,0.68-1.08t0.24-0.92l0-3.04q-1.36-0.52-2.82-0.8t-2.94-0.28q-2.92,0-4.72,1.16t-1.8,3.16q0,1.16,0.6,2.18t1.76,1.68t2.72,0.66q1.96,0,3.66-0.76t2.62-1.96z M103.68,48l-2.72,0l0-11.64q0-3.64-1.16-5.36t-3.44-1.72q-2.36,0-4.22,1.68t-2.62,4.32l0,12.72l-2.72,0l0-11.64q0-3.68-1.12-5.38t-3.44-1.7t-4.2,1.64t-2.64,4.32l0,12.76l-2.72,0l0-20.84l2.48,0l0,4.72q1.32-2.44,3.38-3.76t4.58-1.32q2.6,0,4.2,1.48t1.96,3.88q1.44-2.64,3.46-4t4.58-1.36q1.76,0,2.98,0.64t1.96,1.82t1.08,2.84t0.34,3.7l0,12.2z   M120.2,48l0-28.36l2.8,0l0,16.48l15.64-16.52l3.08,0l-11.6,12.48l12.2,15.92l-3.16,0l-10.84-14.24l-5.32,5.52l0,8.72l-2.8,0z M154.36,48.4q-2.24,0-4.16-0.86t-3.32-2.36t-2.18-3.46t-0.78-4.2q0-2.92,1.34-5.36t3.7-3.9t5.36-1.46q3.08,0,5.38,1.48t3.62,3.9t1.32,5.3l0,0.62t-0.04,0.46l-17.84,0q0.2,2.24,1.26,3.98t2.76,2.76t3.7,1.02q2.04,0,3.86-1.04t2.54-2.72l2.36,0.64q-0.64,1.48-1.96,2.68t-3.1,1.86t-3.82,0.66z M146.68,36.6l15.4,0q-0.16-2.28-1.22-4t-2.76-2.7t-3.74-0.98t-3.72,0.98t-2.74,2.72t-1.22,3.98z M168.96,18.8l2.72,0l0,24.48q0,1.56,0.56,2.04t1.36,0.48q0.72,0,1.44-0.16t1.24-0.32l0.48,2.2q-0.76,0.32-1.86,0.52t-1.9,0.2q-1.84,0-2.94-1.08t-1.1-2.96l0-25.4z M179.84,18.8l2.72,0l0,24.48q0,1.56,0.56,2.04t1.36,0.48q0.72,0,1.44-0.16t1.24-0.32l0.48,2.2q-0.76,0.32-1.86,0.52t-1.9,0.2q-1.84,0-2.94-1.08t-1.1-2.96l0-25.4z M191.8,54.4q0.56,0.04,1.08,0.06t0.76-0.06q0.48-0.08,0.92-0.56t1.04-1.84t1.68-4l-9.08-20.84l2.88,0l7.64,18.04l7.04-18.04l2.72,0l-10.8,26.88q-0.28,0.76-0.84,1.42t-1.38,1.04t-2.02,0.42q-0.36,0.04-0.74,0.02t-0.9-0.1l0-2.44z"/></g><g data-name="slogan" fill="#ffffff" data="id:312" transform="translate(152.98088366596295,207.40347038156213) scale(0.4617946012601003)"><path d="M17.3046875,30.95703125l3.59375,0q-0.13671875,2.9296875-1.181640625,5.048828125t-3.02734375,3.251953125t-4.951171875,1.1328125q-2.12890625,0-3.84765625-0.83984375t-2.939453125-2.412109375t-1.865234375-3.779296875t-0.64453125-4.9609375l0-5.25390625q0-2.734375,0.654296875-4.94140625t1.89453125-3.779296875t3.02734375-2.412109375t4.052734375-0.83984375q2.7734375,0,4.697265625,1.103515625t2.96875,3.22265625t1.162109375,5.185546875l-3.59375,0q-0.13671875-2.24609375-0.703125-3.662109375t-1.669921875-2.08984375t-2.861328125-0.673828125q-1.5625,0-2.705078125,0.625t-1.875,1.787109375t-1.09375,2.79296875t-0.361328125,3.642578125l0,5.29296875q0,1.875,0.302734375,3.49609375t0.9765625,2.841796875t1.767578125,1.904296875t2.65625,0.68359375q1.97265625,0,3.125-0.64453125t1.708984375-2.05078125t0.732421875-3.671875z M28.73046875,22.1875l0,17.8125l-3.45703125,0l0-21.1328125l3.33984375,0z M33.984375,18.75l0.01953125,3.359375q-0.4296875-0.09765625-0.771484375-0.126953125t-0.791015625-0.029296875q-0.9765625,0-1.708984375,0.390625t-1.259765625,1.09375t-0.83984375,1.669921875t-0.4296875,2.119140625l-0.8984375,0.5859375q0-1.9140625,0.302734375-3.59375t0.947265625-2.978515625t1.650390625-2.03125t2.412109375-0.732421875q0.3125,0,0.771484375,0.087890625t0.595703125,0.185546875z M45.01953125,40.390625q-1.89453125,0-3.41796875-0.56640625t-2.59765625-1.728515625t-1.640625-2.939453125t-0.56640625-4.19921875l0-2.3828125q0-2.79296875,0.654296875-4.7265625t1.767578125-3.115234375t2.51953125-1.71875t2.890625-0.537109375q1.9921875,0,3.3984375,0.64453125t2.28515625,1.9140625t1.298828125,3.125t0.419921875,4.27734375l0,2.01171875l-13.203125,0l0-2.94921875l9.74609375,0l0-0.48828125q-0.078125-1.640625-0.439453125-2.890625t-1.181640625-1.962890625t-2.32421875-0.712890625q-0.95703125,0-1.767578125,0.322265625t-1.38671875,1.11328125t-0.8984375,2.177734375t-0.322265625,3.515625l0,2.3828125q0,1.69921875,0.322265625,2.919921875t0.95703125,2.01171875t1.5625,1.171875t2.119140625,0.380859375q1.73828125,0,2.87109375-0.673828125t1.97265625-1.728515625l1.81640625,2.16796875q-0.56640625,0.80078125-1.474609375,1.533203125t-2.2265625,1.19140625t-3.154296875,0.458984375z M66.5625,36.38671875l0-11.46484375q0-1.25-0.380859375-2.01171875t-1.1328125-1.11328125t-1.884765625-0.3515625q-1.09375,0-1.884765625,0.44921875t-1.2109375,1.19140625t-0.419921875,1.640625l-3.45703125,0q0-1.1328125,0.498046875-2.24609375t1.435546875-2.021484375t2.255859375-1.4453125t2.958984375-0.537109375q1.953125,0,3.45703125,0.634765625t2.36328125,2.060546875t0.859375,3.7890625l0,10.4296875q0,1.0546875,0.166015625,2.24609375t0.478515625,2.05078125l0,0.3125l-3.57421875,0q-0.25390625-0.625-0.390625-1.669921875t-0.13671875-1.943359375z M67.109375,27.1875l0.0390625,2.5390625l-2.40234375,0q-1.23046875,0-2.236328125,0.2734375t-1.728515625,0.791015625t-1.103515625,1.279296875t-0.380859375,1.73828125q0,1.26953125,0.3515625,2.021484375t1.0546875,1.083984375t1.77734375,0.33203125q1.30859375,0,2.3046875-0.60546875t1.552734375-1.46484375t0.517578125-1.6015625l0.76171875,1.62109375q-0.078125,0.76171875-0.498046875,1.650390625t-1.162109375,1.69921875t-1.748046875,1.328125t-2.255859375,0.517578125q-1.8359375,0-3.212890625-0.703125t-2.138671875-2.0703125t-0.76171875-3.37890625q0-1.5234375,0.52734375-2.8125t1.5625-2.236328125t2.607421875-1.474609375t3.642578125-0.52734375l2.9296875,0z M83.0859375,18.8671875l0,2.7734375l-9.86328125,0l0-2.7734375l9.86328125,0z M76.4453125,13.73046875l3.45703125,0l0,21.03515625q0,1.07421875,0.263671875,1.62109375t0.673828125,0.72265625t0.87890625,0.17578125q0.3515625,0,0.78125-0.087890625t0.5859375-0.146484375l-0.01953125,2.94921875q-0.3515625,0.13671875-0.9375,0.263671875t-1.484375,0.126953125q-1.11328125,0-2.0703125-0.52734375t-1.54296875-1.767578125t-0.5859375-3.349609375l0-21.015625z M90.91796875,18.8671875l0,21.1328125l-3.4375,0l0-21.1328125l3.4375,0z M87.28515625,13.26171875q0-0.87890625,0.48828125-1.484375t1.46484375-0.60546875t1.474609375,0.60546875t0.498046875,1.484375q0,0.83984375-0.498046875,1.435546875t-1.474609375,0.595703125t-1.46484375-0.595703125t-0.48828125-1.435546875z M99.84375,23.37890625l0,16.62109375l-3.45703125,0l0-21.1328125l3.26171875,0z M99.00390625,28.6328125l-1.40625-0.05859375q-0.01953125-2.16796875,0.498046875-4.013671875t1.484375-3.212890625t2.314453125-2.119140625t2.98828125-0.751953125q1.2890625,0,2.34375,0.419921875t1.796875,1.337890625t1.142578125,2.373046875t0.400390625,3.544921875l0,13.84765625l-3.45703125,0l0-13.88671875q0-1.66015625-0.361328125-2.666015625t-1.09375-1.46484375t-1.845703125-0.458984375q-1.015625,0-1.89453125,0.56640625t-1.533203125,1.5625t-1.015625,2.275390625t-0.361328125,2.705078125z M127.20703125,18.8671875l3.10546875,0l0,21.30859375q0,2.79296875-0.966796875,4.609375t-2.685546875,2.685546875t-3.96484375,0.869140625q-0.80078125,0-2.01171875-0.29296875t-2.421875-0.888671875t-1.9921875-1.494140625l1.42578125-2.40234375q1.11328125,1.1328125,2.36328125,1.62109375t2.3828125,0.48828125q1.34765625,0,2.34375-0.48828125t1.54296875-1.591796875t0.546875-2.939453125l0-16.8359375z M115.05859375,30.44921875l0-1.97265625q0-2.6171875,0.48828125-4.501953125t1.416015625-3.10546875t2.236328125-1.806640625t2.9296875-0.5859375q1.640625,0,2.83203125,0.6640625t1.982421875,1.923828125t1.25,3.046875t0.634765625,4.033203125l0,2.63671875q-0.17578125,2.2265625-0.634765625,4.00390625t-1.26953125,3.02734375t-2.001953125,1.9140625t-2.83203125,0.6640625q-1.6015625,0-2.890625-0.615234375t-2.216796875-1.85546875t-1.42578125-3.10546875t-0.498046875-4.365234375z M118.515625,28.4765625l0,1.97265625q0,1.7578125,0.25390625,3.056640625t0.791015625,2.1484375t1.38671875,1.259765625t2.041015625,0.41015625q1.4453125,0,2.36328125-0.703125t1.474609375-1.865234375t0.888671875-2.509765625l0-5.546875q-0.1953125-0.99609375-0.556640625-1.923828125t-0.927734375-1.66015625t-1.357421875-1.162109375t-1.845703125-0.4296875q-1.19140625,0-2.05078125,0.4296875t-1.40625,1.2890625t-0.80078125,2.16796875t-0.25390625,3.06640625z  M152.3828125,18.8671875l0,2.7734375l-9.86328125,0l0-2.7734375l9.86328125,0z M145.7421875,13.73046875l3.45703125,0l0,21.03515625q0,1.07421875,0.263671875,1.62109375t0.673828125,0.72265625t0.87890625,0.17578125q0.3515625,0,0.78125-0.087890625t0.5859375-0.146484375l-0.01953125,2.94921875q-0.3515625,0.13671875-0.9375,0.263671875t-1.484375,0.126953125q-1.11328125,0-2.0703125-0.52734375t-1.54296875-1.767578125t-0.5859375-3.349609375l0-21.015625z M155.78125,30.44921875l0-2.01171875q0-2.4609375,0.625-4.326171875t1.73828125-3.115234375t2.59765625-1.884765625t3.18359375-0.634765625q1.73828125,0,3.22265625,0.634765625t2.607421875,1.884765625t1.748046875,3.115234375t0.625,4.326171875l0,2.01171875q0,2.4609375-0.625,4.326171875t-1.73828125,3.115234375t-2.59765625,1.875t-3.203125,0.625t-3.203125-0.625t-2.607421875-1.875t-1.748046875-3.115234375t-0.625-4.326171875z M159.23828125,28.4375l0,2.01171875q0,1.73828125,0.3515625,3.046875t0.99609375,2.1875t1.50390625,1.318359375t1.875,0.439453125q1.171875,0,2.060546875-0.439453125t1.474609375-1.318359375t0.87890625-2.1875t0.29296875-3.046875l0-2.01171875q0-1.73828125-0.3515625-3.037109375t-0.99609375-2.1875t-1.513671875-1.328125t-1.884765625-0.439453125q-0.99609375,0-1.85546875,0.439453125t-1.494140625,1.328125t-0.986328125,2.1875t-0.3515625,3.037109375z  M200.9765625,36.93359375l0,3.06640625l-11.796875,0l0-3.06640625l11.796875,0z M189.82421875,11.5625l0,28.4375l-3.59375,0l0-28.4375l3.59375,0z M212.34375,40.390625q-1.89453125,0-3.41796875-0.56640625t-2.59765625-1.728515625t-1.640625-2.939453125t-0.56640625-4.19921875l0-2.3828125q0-2.79296875,0.654296875-4.7265625t1.767578125-3.115234375t2.51953125-1.71875t2.890625-0.537109375q1.9921875,0,3.3984375,0.64453125t2.28515625,1.9140625t1.298828125,3.125t0.419921875,4.27734375l0,2.01171875l-13.203125,0l0-2.94921875l9.74609375,0l0-0.48828125q-0.078125-1.640625-0.439453125-2.890625t-1.181640625-1.962890625t-2.32421875-0.712890625q-0.95703125,0-1.767578125,0.322265625t-1.38671875,1.11328125t-0.8984375,2.177734375t-0.322265625,3.515625l0,2.3828125q0,1.69921875,0.322265625,2.919921875t0.95703125,2.01171875t1.5625,1.171875t2.119140625,0.380859375q1.73828125,0,2.87109375-0.673828125t1.97265625-1.728515625l1.81640625,2.16796875q-0.56640625,0.80078125-1.474609375,1.533203125t-2.2265625,1.19140625t-3.154296875,0.458984375z M233.88671875,36.38671875l0-11.46484375q0-1.25-0.380859375-2.01171875t-1.1328125-1.11328125t-1.884765625-0.3515625q-1.09375,0-1.884765625,0.44921875t-1.2109375,1.19140625t-0.419921875,1.640625l-3.45703125,0q0-1.1328125,0.498046875-2.24609375t1.435546875-2.021484375t2.255859375-1.4453125t2.958984375-0.537109375q1.953125,0,3.45703125,0.634765625t2.36328125,2.060546875t0.859375,3.7890625l0,10.4296875q0,1.0546875,0.166015625,2.24609375t0.478515625,2.05078125l0,0.3125l-3.57421875,0q-0.25390625-0.625-0.390625-1.669921875t-0.13671875-1.943359375z M234.43359375,27.1875l0.0390625,2.5390625l-2.40234375,0q-1.23046875,0-2.236328125,0.2734375t-1.728515625,0.791015625t-1.103515625,1.279296875t-0.380859375,1.73828125q0,1.26953125,0.3515625,2.021484375t1.0546875,1.083984375t1.77734375,0.33203125q1.30859375,0,2.3046875-0.60546875t1.552734375-1.46484375t0.517578125-1.6015625l0.76171875,1.62109375q-0.078125,0.76171875-0.498046875,1.650390625t-1.162109375,1.69921875t-1.748046875,1.328125t-2.255859375,0.517578125q-1.8359375,0-3.212890625-0.703125t-2.138671875-2.0703125t-0.76171875-3.37890625q0-1.5234375,0.52734375-2.8125t1.5625-2.236328125t2.607421875-1.474609375t3.642578125-0.52734375l2.9296875,0z M246.15234375,22.1875l0,17.8125l-3.45703125,0l0-21.1328125l3.33984375,0z M251.40625,18.75l0.01953125,3.359375q-0.4296875-0.09765625-0.771484375-0.126953125t-0.791015625-0.029296875q-0.9765625,0-1.708984375,0.390625t-1.259765625,1.09375t-0.83984375,1.669921875t-0.4296875,2.119140625l-0.8984375,0.5859375q0-1.9140625,0.302734375-3.59375t0.947265625-2.978515625t1.650390625-2.03125t2.412109375-0.732421875q0.3125,0,0.771484375,0.087890625t0.595703125,0.185546875z M258.33984375,23.37890625l0,16.62109375l-3.45703125,0l0-21.1328125l3.26171875,0z M257.5,28.6328125l-1.40625-0.05859375q-0.01953125-2.16796875,0.498046875-4.013671875t1.484375-3.212890625t2.314453125-2.119140625t2.98828125-0.751953125q1.2890625,0,2.34375,0.419921875t1.796875,1.337890625t1.142578125,2.373046875t0.400390625,3.544921875l0,13.84765625l-3.45703125,0l0-13.88671875q0-1.66015625-0.361328125-2.666015625t-1.09375-1.46484375t-1.845703125-0.458984375q-1.015625,0-1.89453125,0.56640625t-1.533203125,1.5625t-1.015625,2.275390625t-0.361328125,2.705078125z"/></g></svg>